<mxfile host="app.diagrams.net" modified="2023-06-10T13:31:54.349Z" agent="Mozilla/5.0 (Macintosh; Intel Mac OS X 10_15_7) AppleWebKit/605.1.15 (KHTML, like Gecko) Version/16.4 Safari/605.1.15" version="21.3.8" etag="zgSQn7g9XOo1iCjtat16" type="github">
  <diagram name="Page-1" id="0y4Mi-aLMXRdSfjoTBSf">
    <mxGraphModel>
      <root>
        <mxCell id="0" />
        <mxCell id="1" parent="0" />
      </root>
    </mxGraphModel>
  </diagram>
</mxfile>
